# xmcd
#
# Track frame offsets:
#	150
#	13417
#	29525
#	39877
#	54889
#	66340
#	82362
#	97117
#	111680
#	124870
#	143567
#	154212
#
# Disc length: 2212 seconds
#
# Revision: 0
# Processed by: cddbd v1.5.2PL0 Copyright (c) Steve Scherf et al.
# Submitted via: EasyCDDAExtractor 9.1.3.1
#
DISCID=ae08a20c
DTITLE=Belmonte e Amaraí - Gente de minha terra
DYEAR=1995
DGENRE=Country
TTITLE0=Gente de minha terra
TTITLE1=Faz um ano
TTITLE2=Visita a Goiás
TTITLE3=Cavalo branco (El caballo blanco)
TTITLE4=Presença de Deus
TTITLE5=Meu pequeno cachoeiro (Meu cachoeiro)
TTITLE6=Cavalo preto valente
TTITLE7=Adeus mariquita linda (Adios mariquita linda)
TTITLE8=Do mundo nada se leva
TTITLE9=Carreta da fronteira (La carreta campesina)
TTITLE10=Só me resta esquecer
TTITLE11=Por ser vagabundo (O vagabundo)
EXTD=
EXTT0=
EXTT1=
EXTT2=
EXTT3=
EXTT4=
EXTT5=
EXTT6=
EXTT7=
EXTT8=
EXTT9=
EXTT10=
EXTT11=
PLAYORDER=
